<svg width="166px" height="166px" viewBox="-2.4 -2.4 28.80 28.80" id="_24x24_On_Light_Edit" data-name="24x24/On Light/Edit" xmlns="http://www.w3.org/2000/svg" fill="#ffffff" stroke="#ffffff" transform="rotate(0)"><g id="SVGRepo_bgCarrier" stroke-width="0"></g><g id="SVGRepo_tracerCarrier" stroke-linecap="round" stroke-linejoin="round" stroke="#CCCCCC" stroke-width="0.336"></g><g id="SVGRepo_iconCarrier"> <rect id="view-box" width="24" height="24" fill="none"></rect> <path id="Shape" d="M.75,17.5A.751.751,0,0,1,0,16.75V12.569a.755.755,0,0,1,.22-.53L11.461.8a2.72,2.72,0,0,1,3.848,0L16.7,2.191a2.72,2.72,0,0,1,0,3.848L5.462,17.28a.747.747,0,0,1-.531.22ZM1.5,12.879V16h3.12l7.91-7.91L9.41,4.97ZM13.591,7.03l2.051-2.051a1.223,1.223,0,0,0,0-1.727L14.249,1.858a1.222,1.222,0,0,0-1.727,0L10.47,3.91Z" transform="translate(3.25 3.25)" fill="#ffffff"></path> </g></svg>